<svg width="22" height="16" viewBox="0 0 22 16" fill="none" xmlns="http://www.w3.org/2000/svg">
<path d="M18.6361 1.33998C17.212 0.71399 15.6892 0.25903 14.0973 0C13.9018 0.33209 13.6734 0.77875 13.5159 1.13408C11.8236 0.89498 10.1469 0.89498 8.4857 1.13408C8.3283 0.77875 8.0946 0.33209 7.8974 0C6.3037 0.25903 4.77927 0.71565 3.35518 1.3433C0.482762 5.4213 -0.295908 9.3981 0.0934218 13.3184C1.99856 14.6551 3.84487 15.467 5.66 15.9983C6.1082 15.4189 6.5079 14.8029 6.8523 14.1536C6.1964 13.9195 5.5683 13.6306 4.9748 13.2951C5.1323 13.1856 5.2863 13.071 5.4351 12.9531C9.0551 14.5438 12.9881 14.5438 16.5649 12.9531C16.7154 13.071 16.8694 13.1856 17.0251 13.2951C16.4299 13.6322 15.8 13.9211 15.1442 14.1553C15.4885 14.8029 15.8865 15.4205 16.3364 16C18.1533 15.4687 20.0013 14.6567 21.9065 13.3184C22.3633 8.7738 21.1261 4.8335 18.6361 1.33998ZM7.3454 10.9075C6.2587 10.9075 5.3676 9.9543 5.3676 8.7937C5.3676 7.6331 6.2397 6.6783 7.3454 6.6783C8.4511 6.6783 9.3422 7.6314 9.3232 8.7937C9.325 9.9543 8.4511 10.9075 7.3454 10.9075ZM14.6545 10.9075C13.5678 10.9075 12.6767 9.9543 12.6767 8.7937C12.6767 7.6331 13.5488 6.6783 14.6545 6.6783C15.7602 6.6783 16.6514 7.6314 16.6323 8.7937C16.6323 9.9543 15.7602 10.9075 14.6545 10.9075Z" fill="#5865F2"/>
</svg>
