<svg width="12" height="12" viewBox="0 0 12 12" fill="none" xmlns="http://www.w3.org/2000/svg">
<path d="M6.14315 0.544215C6.0483 0.530509 5.95197 0.530509 5.85712 0.544215C5.7478 0.560011 5.64608 0.598439 5.56531 0.628952L5.54367 0.637108L2.79745 1.66687C2.48856 1.78219 2.21729 1.88347 2.00838 2.06758C1.82562 2.22864 1.68484 2.43179 1.5982 2.65946C1.49917 2.91972 1.49959 3.20928 1.50007 3.539L1.50013 5.99994C1.50013 7.41325 2.26878 8.59154 3.09966 9.45714C3.93611 10.3285 4.89313 10.944 5.39918 11.2393L5.41967 11.2513C5.51202 11.3055 5.63189 11.3759 5.79045 11.4099C5.92018 11.4377 6.08009 11.4377 6.20981 11.4099C6.36838 11.3759 6.48824 11.3055 6.58059 11.2513L6.60108 11.2393C7.10713 10.944 8.06415 10.3285 8.9006 9.45714C9.73149 8.59154 10.5001 7.41325 10.5001 5.99994L10.5002 3.539C10.5007 3.20928 10.5011 2.91972 10.4021 2.65946C10.3154 2.43179 10.1746 2.22864 9.99189 2.06758C9.78298 1.88347 9.51171 1.78219 9.20281 1.66687L6.45659 0.637108L6.43495 0.628951C6.35418 0.598438 6.25246 0.560011 6.14315 0.544215Z" fill="#1DB462"/>
</svg>
