<svg width="12" height="12" viewBox="0 0 12 12" fill="none" xmlns="http://www.w3.org/2000/svg">
<path fill-rule="evenodd" clip-rule="evenodd" d="M1.01575 6C1.0156 5.93309 1.00246 5.86625 0.976325 5.80326L0.615605 4.92988C0.539397 4.74594 0.500032 4.54849 0.5 4.3494C0.499968 4.15019 0.539188 3.95293 0.615419 3.76888C0.691651 3.58484 0.803399 3.41761 0.944281 3.27677C1.08512 3.13597 1.25233 3.02429 1.43633 2.94811L2.3083 2.58692C2.43458 2.5347 2.5353 2.43443 2.58787 2.3083L2.94915 1.43607C3.10304 1.06453 3.39822 0.76933 3.76976 0.615427C4.1413 0.461524 4.55876 0.461524 4.93031 0.615427L5.80186 0.976452C5.92834 1.02867 6.07051 1.0286 6.19689 0.976155L6.19788 0.975744L7.07021 0.615958C7.44162 0.462265 7.85917 0.462214 8.23054 0.616046C8.60201 0.769918 8.89715 1.06503 9.05106 1.43648L9.40367 2.28776C9.4068 2.29448 9.40979 2.3013 9.41265 2.30821C9.46492 2.43462 9.56521 2.53512 9.6915 2.58765L10.564 2.94905C10.9355 3.10295 11.2307 3.39815 11.3846 3.76969C11.5385 4.14124 11.5385 4.5587 11.3846 4.93024L11.0234 5.80224C10.9972 5.86557 10.9841 5.93304 10.984 6.00015C10.9841 6.06726 10.9972 6.13443 11.0234 6.19776L11.3846 7.06976C11.5385 7.4413 11.5385 7.85876 11.3846 8.23031C11.2307 8.60185 10.9355 8.89705 10.564 9.05095L9.6915 9.41235C9.56521 9.46488 9.46492 9.56538 9.41265 9.69179C9.40979 9.6987 9.4068 9.70552 9.40367 9.71224L9.05106 10.5635C8.89715 10.935 8.60201 11.2301 8.23054 11.384C7.85917 11.5378 7.44162 11.5377 7.07021 11.384L6.19788 11.0243L6.19689 11.0238C6.07051 10.9714 5.92834 10.9713 5.80186 11.0235L4.93031 11.3846C4.55876 11.5385 4.1413 11.5385 3.76976 11.3846C3.39822 11.2307 3.10304 10.9355 2.94915 10.5639L2.58787 9.6917C2.5353 9.56557 2.43458 9.4653 2.3083 9.41308L1.43633 9.05189C1.25233 8.97571 1.08512 8.86403 0.944281 8.72323C0.803399 8.58239 0.691651 8.41516 0.615419 8.23112C0.539188 8.04707 0.499968 7.84981 0.5 7.6506C0.500032 7.45151 0.539397 7.25406 0.615605 7.07012L0.976325 6.19674C1.00246 6.13375 1.0156 6.06691 1.01575 6ZM8.10355 5.10355C8.29882 4.90829 8.29882 4.59171 8.10355 4.39645C7.90829 4.20118 7.59171 4.20118 7.39645 4.39645L5.5 6.29289L4.85355 5.64645C4.65829 5.45118 4.34171 5.45118 4.14645 5.64645C3.95118 5.84171 3.95118 6.15829 4.14645 6.35355L5.14645 7.35355C5.34171 7.54882 5.65829 7.54882 5.85355 7.35355L8.10355 5.10355Z" fill="#4E75FF"/>
</svg>
