<svg width="118" height="24" viewBox="0 0 118 24" fill="none" xmlns="http://www.w3.org/2000/svg">
<g filter="url(#filter0_b_147_1604)">
<path d="M31.1661 19C29.8778 19 28.7808 18.7043 27.8751 18.1129C26.9822 17.5216 26.3572 16.7117 26 15.6832L27.8943 14.5647C28.43 16.0817 29.5398 16.8402 31.2235 16.8402C32.0527 16.8402 32.6713 16.6795 33.0795 16.3581C33.5005 16.0239 33.7109 15.5932 33.7109 15.0661C33.7109 14.5133 33.4877 14.0955 33.0413 13.8127C32.5948 13.517 31.8039 13.1956 30.6687 12.8485C30.0309 12.6556 29.5143 12.4757 29.1188 12.3085C28.7234 12.1414 28.3024 11.91 27.856 11.6143C27.4223 11.3058 27.097 10.9265 26.8802 10.4766C26.6633 10.0266 26.5549 9.49954 26.5549 8.89532C26.5549 7.69972 26.9758 6.75482 27.8177 6.06061C28.6596 5.35354 29.6737 5 30.86 5C31.9315 5 32.8691 5.26354 33.6727 5.79063C34.4763 6.31772 35.095 7.04408 35.5287 7.9697L33.6727 9.04959C33.1114 7.78972 32.1739 7.15978 30.86 7.15978C30.2222 7.15978 29.712 7.31405 29.3293 7.62259C28.9466 7.91827 28.7553 8.32323 28.7553 8.83747C28.7553 9.33884 28.9466 9.73737 29.3293 10.0331C29.7247 10.3159 30.4327 10.618 31.4531 10.9394C31.9634 11.1065 32.3333 11.2351 32.5629 11.3251C32.8053 11.4022 33.1369 11.5308 33.5579 11.7107C33.9916 11.8907 34.3168 12.0707 34.5337 12.2507C34.7505 12.4307 34.9802 12.6556 35.2225 12.9256C35.4776 13.1956 35.6562 13.5041 35.7583 13.8512C35.8603 14.1983 35.9113 14.5905 35.9113 15.0275C35.9113 16.2489 35.4713 17.2195 34.5911 17.9394C33.7237 18.6465 32.582 19 31.1661 19Z" fill="#33363E"/>
<path d="M46.0272 5.25069V7.3719H42.2578V18.7493H40.0574V7.3719H36.2689V5.25069H46.0272Z" fill="#33363E"/>
<path d="M55.4264 18.7493L54.4888 16.0303H48.7869L47.8494 18.7493H45.4576L50.3176 5.25069H52.9581L57.799 18.7493H55.4264ZM49.514 13.9477H53.7617L51.6379 7.854L49.514 13.9477Z" fill="#33363E"/>
<path d="M66.8736 18.7493L64.0418 13.832H61.4396V18.7493H59.2392V5.25069H64.5967C65.7958 5.25069 66.8099 5.67493 67.639 6.52342C68.4809 7.35905 68.9018 8.38108 68.9018 9.58953C68.9018 10.4509 68.6531 11.2415 68.1556 11.9614C67.6709 12.6685 67.0331 13.1827 66.2422 13.5041L69.2845 18.7493H66.8736ZM61.4396 7.33333V11.8457H64.5967C65.1835 11.8457 65.681 11.6272 66.0892 11.1901C66.4973 10.753 66.7014 10.2195 66.7014 9.58953C66.7014 8.9596 66.4973 8.42608 66.0892 7.98898C65.681 7.55188 65.1835 7.33333 64.5967 7.33333H61.4396Z" fill="#33363E"/>
<path d="M74.1926 18.7493L69.5431 5.25069H71.954L75.5129 16.0689L79.0909 5.25069H81.4826L76.8331 18.7493H74.1926Z" fill="#33363E"/>
<path d="M85.114 16.6281H91.0455V18.7493H82.9136V5.25069H90.9499V7.3719H85.114V10.8815H90.4715V12.9835H85.114V16.6281Z" fill="#33363E"/>
<path d="M95.2602 16.6281H100.713V18.7493H93.0598V5.25069H95.2602V16.6281Z" fill="#33363E"/>
<path d="M104.547 16.6281H110V18.7493H102.346V5.25069H104.547V16.6281Z" fill="#33363E"/>
</g>
<path d="M11.8345 16.1643L11.8197 16.1633L11.8132 16.1765L10.8702 18.0829C10.8702 18.083 10.8701 18.083 10.8701 18.083C10.8565 18.1098 10.8421 18.1383 10.8269 18.1684C10.5532 18.71 10.0164 19.7723 9.32061 20.4249C8.95354 20.7693 8.54546 20.9964 8.11116 20.9767C7.6777 20.957 7.21113 20.6909 6.72734 20.0329C6.1745 19.0738 5.94113 18.2753 5.94351 17.5923C5.94589 16.9096 6.18384 16.3404 6.57758 15.8397C6.97169 15.3385 7.52187 14.9061 8.14835 14.4981C8.61781 14.1924 9.129 13.9011 9.64853 13.605C9.82243 13.5059 9.99726 13.4063 10.1718 13.3054C10.3439 13.2059 10.5151 13.1056 10.6854 13.0057C11.2038 12.7019 11.7138 12.403 12.2155 12.1479C12.8818 11.8091 13.5313 11.5488 14.1621 11.4582C14.7924 11.3677 15.404 11.4465 15.996 11.7862C16.5881 12.126 17.1623 12.7279 17.7154 13.6868C18.0426 14.4352 18.0395 14.9729 17.8398 15.3586C17.6398 15.7451 17.2392 15.9853 16.7579 16.1314C15.8455 16.4084 14.6583 16.3428 14.0529 16.3093C14.0193 16.3074 13.9874 16.3057 13.9575 16.3041C13.9575 16.3041 13.9574 16.3041 13.9574 16.3041L11.8345 16.1643ZM4.12849 8.82646L4.14187 8.81948L4.14026 8.80448L3.68193 4.52589C3.5566 3.35592 4.87726 2.59263 5.82644 3.28623L9.2978 5.82286L9.31001 5.83178L9.32275 5.82366C10.436 5.11401 11.6558 4.39542 12.688 4.06097C13.2042 3.89372 13.6709 3.82342 14.0528 3.8964C14.4331 3.96908 14.7305 4.18397 14.9105 4.5917C15.0488 4.9051 15.0934 5.47468 14.8971 6.21154C14.701 6.94765 14.265 7.84889 13.4452 8.8242C12.5858 9.84656 11.3047 10.9503 9.43641 12.0303C7.56985 13.1092 5.97586 13.6682 4.66256 13.9025C3.40794 14.1264 2.40954 14.0541 1.67419 13.8561C0.938104 13.6579 0.467374 13.3343 0.265366 13.0575C0.00254461 12.6974 -0.0345074 12.3318 0.0930067 11.9656C0.221062 11.5977 0.515608 11.228 0.918804 10.8639C1.72505 10.1357 2.95757 9.43705 4.12849 8.82646Z" fill="url(#paint0_radial_147_1604)"/>
<path d="M11.8345 16.1643L11.8197 16.1633L11.8132 16.1765L10.8702 18.0829C10.8702 18.083 10.8701 18.083 10.8701 18.083C10.8565 18.1098 10.8421 18.1383 10.8269 18.1684C10.5532 18.71 10.0164 19.7723 9.32061 20.4249C8.95354 20.7693 8.54546 20.9964 8.11116 20.9767C7.6777 20.957 7.21113 20.6909 6.72734 20.0329C6.1745 19.0738 5.94113 18.2753 5.94351 17.5923C5.94589 16.9096 6.18384 16.3404 6.57758 15.8397C6.97169 15.3385 7.52187 14.9061 8.14835 14.4981C8.61781 14.1924 9.129 13.9011 9.64853 13.605C9.82243 13.5059 9.99726 13.4063 10.1718 13.3054C10.3439 13.2059 10.5151 13.1056 10.6854 13.0057C11.2038 12.7019 11.7138 12.403 12.2155 12.1479C12.8818 11.8091 13.5313 11.5488 14.1621 11.4582C14.7924 11.3677 15.404 11.4465 15.996 11.7862C16.5881 12.126 17.1623 12.7279 17.7154 13.6868C18.0426 14.4352 18.0395 14.9729 17.8398 15.3586C17.6398 15.7451 17.2392 15.9853 16.7579 16.1314C15.8455 16.4084 14.6583 16.3428 14.0529 16.3093C14.0193 16.3074 13.9874 16.3057 13.9575 16.3041C13.9575 16.3041 13.9574 16.3041 13.9574 16.3041L11.8345 16.1643ZM4.12849 8.82646L4.14187 8.81948L4.14026 8.80448L3.68193 4.52589C3.5566 3.35592 4.87726 2.59263 5.82644 3.28623L9.2978 5.82286L9.31001 5.83178L9.32275 5.82366C10.436 5.11401 11.6558 4.39542 12.688 4.06097C13.2042 3.89372 13.6709 3.82342 14.0528 3.8964C14.4331 3.96908 14.7305 4.18397 14.9105 4.5917C15.0488 4.9051 15.0934 5.47468 14.8971 6.21154C14.701 6.94765 14.265 7.84889 13.4452 8.8242C12.5858 9.84656 11.3047 10.9503 9.43641 12.0303C7.56985 13.1092 5.97586 13.6682 4.66256 13.9025C3.40794 14.1264 2.40954 14.0541 1.67419 13.8561C0.938104 13.6579 0.467374 13.3343 0.265366 13.0575C0.00254461 12.6974 -0.0345074 12.3318 0.0930067 11.9656C0.221062 11.5977 0.515608 11.228 0.918804 10.8639C1.72505 10.1357 2.95757 9.43705 4.12849 8.82646Z" stroke="url(#paint1_radial_147_1604)" stroke-width="0.044256" style="mix-blend-mode:soft-light"/>
<defs>
<filter id="filter0_b_147_1604" x="-64.7828" y="-85.7828" width="265.566" height="195.566" filterUnits="userSpaceOnUse" color-interpolation-filters="sRGB">
<feFlood flood-opacity="0" result="BackgroundImageFix"/>
<feGaussianBlur in="BackgroundImageFix" stdDeviation="45.3914"/>
<feComposite in2="SourceAlpha" operator="in" result="effect1_backgroundBlur_147_1604"/>
<feBlend mode="normal" in="SourceGraphic" in2="effect1_backgroundBlur_147_1604" result="shape"/>
</filter>
<radialGradient id="paint0_radial_147_1604" cx="0" cy="0" r="1" gradientUnits="userSpaceOnUse" gradientTransform="translate(9 3) rotate(106.187) scale(19.6614)">
<stop stop-color="#3DC5FF"/>
<stop offset="1" stop-color="#0032E1"/>
</radialGradient>
<radialGradient id="paint1_radial_147_1604" cx="0" cy="0" r="1" gradientUnits="userSpaceOnUse" gradientTransform="translate(11.0199 6.8342) rotate(166.28) scale(9.49109 9.30322)">
<stop stop-color="white"/>
<stop offset="1" stop-color="white" stop-opacity="0.35"/>
</radialGradient>
</defs>
</svg>
