<svg width="24" height="14" viewBox="0 0 24 14" fill="none" xmlns="http://www.w3.org/2000/svg">
<path d="M23.4569 0.962475C23.1869 1.7946 22.8228 2.5189 22.3667 3.17656L22.3857 3.14716C21.9377 3.87898 21.4026 4.72449 20.7805 5.6837C20.247 6.44101 19.9647 6.83305 19.9333 6.85984C19.7953 7.0294 19.6993 7.23719 19.6663 7.46556L19.6653 7.47242C19.6923 7.6802 19.7903 7.86152 19.9333 7.99678L20.3334 8.43391C22.4737 10.5895 23.6776 12.0754 23.945 12.8915C23.98 12.9817 24 13.0855 24 13.1943C24 13.3845 23.938 13.5599 23.833 13.704L23.835 13.7011C23.6589 13.8785 23.4129 13.9882 23.1409 13.9882C23.1108 13.9882 23.0798 13.9873 23.0508 13.9843H23.0548H20.4234C20.4224 13.9843 20.4204 13.9843 20.4184 13.9843C20.0813 13.9843 19.7713 13.8687 19.5283 13.6766L19.5313 13.6785C19.1772 13.3933 18.8621 13.0846 18.5801 12.7494L18.5711 12.7376C18.1103 12.2273 17.7016 11.7977 17.3449 11.4488C16.1567 10.3419 15.2799 9.78843 14.7145 9.78843C14.6934 9.78647 14.6694 9.78549 14.6444 9.78549C14.4794 9.78549 14.3254 9.83548 14.1984 9.92075L14.2014 9.91879C14.0973 10.0462 14.0343 10.2109 14.0343 10.3883C14.0343 10.4236 14.0363 10.4569 14.0413 10.4912V10.4873C14.0143 10.795 13.9983 11.1528 13.9983 11.5144C13.9983 11.6311 14.0003 11.7467 14.0033 11.8624V11.8457V12.9817C14.0133 13.0277 14.0193 13.0806 14.0193 13.1346C14.0193 13.3717 13.9093 13.5835 13.7373 13.7236L13.7363 13.7246C13.3492 13.8981 12.8971 14 12.4201 14C12.3181 14 12.218 13.9951 12.119 13.9863L12.132 13.9873C10.5578 13.9579 9.09752 13.506 7.85631 12.7445L7.89132 12.7641C6.38006 11.8643 5.12785 10.6931 4.1737 9.30916L4.14669 9.26799C3.24054 8.08989 2.3954 6.75889 1.67528 5.35536L1.60527 5.20442C1.1842 4.41837 0.748125 3.45197 0.372062 2.45813L0.312052 2.27681C0.159027 1.82988 0.048008 1.31042 0.00200033 0.772333L0 0.74783C0 0.252544 0.297383 0.0049007 0.892149 0.0049007H3.52259C3.54659 0.00294046 3.5746 0.00196009 3.6036 0.00196009C3.85164 0.00196009 4.08068 0.0852702 4.26171 0.225427L4.25971 0.223467C4.45974 0.438113 4.60777 0.701764 4.68078 0.995799L4.68378 1.00756C5.16786 2.34738 5.68095 3.47256 6.27104 4.55069L6.20403 4.41641C6.68611 5.36712 7.2192 6.18552 7.8273 6.94119L7.8043 6.91081C8.33772 7.55246 8.75379 7.87328 9.05251 7.87328C9.06151 7.87426 9.07251 7.87426 9.08451 7.87426C9.23254 7.87426 9.36156 7.79585 9.43157 7.67824L9.43257 7.67628C9.50658 7.49006 9.54959 7.27345 9.54959 7.04803C9.54959 7 9.54759 6.95197 9.54359 6.90493V6.91081V3.10893C9.52259 2.66102 9.41057 2.24251 9.22354 1.86712L9.23154 1.88575C9.10752 1.62699 8.95849 1.40353 8.78146 1.20456L8.78446 1.20848C8.62044 1.04775 8.50842 0.83702 8.47341 0.601792L8.47241 0.595911C8.47241 0.429291 8.55042 0.279333 8.67244 0.181322L8.67344 0.180342C8.79447 0.0715486 8.95649 0.00588075 9.13352 0.00588075H9.14152H13.2882C13.3102 0.00294039 13.3352 0.00196009 13.3612 0.00196009C13.5563 0.00196009 13.7313 0.0882107 13.8473 0.223467L13.8483 0.224447C13.9513 0.408709 14.0123 0.629236 14.0123 0.862504C14.0123 0.899748 14.0103 0.936012 14.0073 0.972277V0.967376V6.03752C14.0053 6.06105 14.0043 6.08849 14.0043 6.11593C14.0043 6.29628 14.0553 6.46584 14.1434 6.60991L14.1414 6.60599C14.2144 6.71184 14.3364 6.78045 14.4744 6.78045C14.6504 6.76869 14.8115 6.71184 14.9465 6.62167L14.9435 6.62363C15.2155 6.44035 15.4496 6.23159 15.6526 5.99538L15.6566 5.99048C16.2637 5.31812 16.8238 4.57519 17.3119 3.78521L17.3509 3.71661C17.6949 3.15794 18.067 2.4699 18.4041 1.76323L18.4661 1.61915L18.9122 0.744889C19.0672 0.307757 19.4832 0 19.9723 0C19.9913 0 20.0103 -7.10847e-08 20.0293 0.000980047H20.0263H22.6578C23.3686 0.000980047 23.6353 0.321478 23.4579 0.962475H23.4569Z" fill="#4680C2"/>
</svg>
